<mxfile host="65bd71144e">
    <diagram name="Azure Functions SQL Output Binding Architecture" id="0">
        <mxGraphModel dx="1775" dy="1096" grid="1" gridSize="10" guides="1" tooltips="1" connect="1" arrows="1" fold="1" page="1" pageScale="1" pageWidth="827" pageHeight="1169" math="0" shadow="0">
            <root>
                <mxCell id="0"/>
                <mxCell id="1" parent="0"/>
                <mxCell id="2" value="Client Application (sends ToDo object via HTTP)" style="rounded=1;whiteSpace=wrap;html=1;fillColor=#dae8fc;strokeColor=#6c8ebf;" parent="1" vertex="1">
                    <mxGeometry x="80" y="170" width="160" height="60" as="geometry"/>
                </mxCell>
                <mxCell id="3" value="ToDo JSON" style="edgeStyle=orthogonalEdgeStyle;endArrow=block;html=1;strokeColor=#000000;fontSize=12;" parent="1" source="2" target="4" edge="1">
                    <mxGeometry relative="1" as="geometry"/>
                </mxCell>
                <mxCell id="4" value="Azure Function (SQL Output Binding)" style="rounded=1;whiteSpace=wrap;html=1;fillColor=#e1d5e7;strokeColor=#9673a6;" parent="1" vertex="1">
                    <mxGeometry x="260" y="70" width="180" height="60" as="geometry"/>
                </mxCell>
                <mxCell id="5" value="Insert ToDo" style="edgeStyle=orthogonalEdgeStyle;endArrow=block;html=1;strokeColor=#000000;fontSize=12;" parent="1" source="4" target="6" edge="1">
                    <mxGeometry relative="1" as="geometry"/>
                </mxCell>
                <mxCell id="6" value="Azure SQL Database" style="shape=cylinder;whiteSpace=wrap;html=1;fillColor=#fff2cc;strokeColor=#d6b656;" parent="1" vertex="1">
                    <mxGeometry x="500" y="180" width="120" height="60" as="geometry"/>
                </mxCell>
                <mxCell id="7" value="Change Tracking" style="edgeStyle=orthogonalEdgeStyle;endArrow=block;dashed=1;html=1;strokeColor=#000000;fontSize=12;" parent="1" source="6" target="8" edge="1">
                    <mxGeometry relative="1" as="geometry"/>
                </mxCell>
                <mxCell id="8" value="Azure Function (SQL Trigger)" style="rounded=1;whiteSpace=wrap;html=1;fillColor=#e1d5e7;strokeColor=#9673a6;" parent="1" vertex="1">
                    <mxGeometry x="740" y="240" width="180" height="60" as="geometry"/>
                </mxCell>
                <mxCell id="9" value="Downstream Systems, Caches, etc..." style="rounded=1;whiteSpace=wrap;html=1;fillColor=#f8cecc;strokeColor=#b85450;" parent="1" vertex="1">
                    <mxGeometry x="960" y="340" width="180" height="60" as="geometry"/>
                </mxCell>
                <mxCell id="10" value="Update, Notify, Sync" style="edgeStyle=orthogonalEdgeStyle;endArrow=block;html=1;strokeColor=#b85450;fontSize=12;" parent="1" source="8" target="9" edge="1">
                    <mxGeometry relative="1" as="geometry"/>
                </mxCell>
                <mxCell id="11" value="Azure Monitor" style="ellipse;whiteSpace=wrap;html=1;fillColor=#d5e8d4;strokeColor=#82b366;" parent="1" vertex="1">
                    <mxGeometry x="500" y="320" width="120" height="60" as="geometry"/>
                </mxCell>
                <mxCell id="12" style="edgeStyle=orthogonalEdgeStyle;endArrow=block;dashed=1;html=1;strokeColor=#6c8ebf;" parent="1" source="2" target="11" edge="1">
                    <mxGeometry relative="1" as="geometry"/>
                </mxCell>
                <mxCell id="13" style="edgeStyle=orthogonalEdgeStyle;endArrow=block;dashed=1;html=1;strokeColor=#9673a6;" parent="1" source="4" target="11" edge="1">
                    <mxGeometry relative="1" as="geometry"/>
                </mxCell>
                <mxCell id="14" style="edgeStyle=orthogonalEdgeStyle;endArrow=block;dashed=1;html=1;strokeColor=#d6b656;" parent="1" source="6" target="11" edge="1">
                    <mxGeometry relative="1" as="geometry"/>
                </mxCell>
                <mxCell id="15" style="edgeStyle=orthogonalEdgeStyle;endArrow=block;dashed=1;html=1;strokeColor=#9673a6;" parent="1" source="8" target="11" edge="1">
                    <mxGeometry relative="1" as="geometry"/>
                </mxCell>
                <mxCell id="16" style="edgeStyle=orthogonalEdgeStyle;endArrow=block;dashed=1;html=1;strokeColor=#b85450;" parent="1" source="9" target="11" edge="1">
                    <mxGeometry relative="1" as="geometry"/>
                </mxCell>
            </root>
        </mxGraphModel>
    </diagram>
</mxfile>